<svg width="101" height="100" viewBox="0 0 101 100" fill="none" xmlns="http://www.w3.org/2000/svg">
<g id="Frame" clip-path="url(#clip0_23_15)">
<path id="Vector" d="M82.7242 42.8366L82.9154 54.0591H82.8196L79.5725 42.8366H74.2238V56.972H77.7575L77.5667 45.3679H77.6625L81.1484 56.972H86.2584V42.8366H82.7242ZM15.4367 42.8366L12.7625 57.1158H16.6309L18.5888 44.1262H18.6842L20.5946 57.1154H24.415L21.7884 42.8366H15.4367ZM37.0221 42.8366L35.2554 53.725H35.1596L33.3929 42.8366H27.5667L27.28 57.1158H30.8617L30.9575 44.2691H31.005L33.3925 57.1154H37.0221L39.41 44.2695H39.5059L39.6009 57.1154H43.1825L42.8484 42.8366H37.0221ZM6.74545 53.0562C6.88836 53.3904 6.84086 53.8683 6.79295 54.107C6.69753 54.5845 6.36336 55.062 5.40795 55.062C4.50086 55.062 3.97545 54.5371 3.97545 53.7725V52.3879H0.155029V53.4862C0.155029 56.6858 2.68586 57.6408 5.36045 57.6408C7.9392 57.6408 10.0879 56.7333 10.4225 54.3933C10.6134 53.1516 10.47 52.34 10.4225 52.0533C9.75378 49.045 4.31003 48.1854 3.92753 46.5137C3.88003 46.227 3.88003 45.9408 3.92753 45.7496C4.02336 45.2721 4.35753 44.7945 5.21711 44.7945C6.0767 44.7945 6.55461 45.3195 6.55461 46.0841V46.9437H10.1359V45.9408C10.1359 42.8366 7.31836 42.3591 5.31253 42.3591C2.7817 42.3591 0.680446 43.2187 0.298363 45.5108C0.202529 46.1316 0.155029 46.705 0.345863 47.4212C0.919196 50.382 6.02961 51.2416 6.74545 53.0562ZM53.2117 53.0562C53.3546 53.3908 53.3067 53.8204 53.2592 54.107C53.1634 54.5845 52.8292 55.062 51.8742 55.062C50.9667 55.062 50.4417 54.5371 50.4417 53.7725V52.3879H46.6209V53.4862C46.6209 56.6379 49.1042 57.5933 51.7788 57.5933C54.3575 57.5933 56.4588 56.7337 56.7929 54.3458C56.9842 53.1041 56.8409 52.34 56.7929 52.0058C56.22 49.045 50.8234 48.1375 50.4417 46.5141C50.3938 46.2275 50.3938 45.9408 50.4417 45.7496C50.5371 45.2721 50.8713 44.7945 51.7309 44.7945C52.5425 44.7945 53.0684 45.3195 53.0684 46.0841V46.9437H56.6017V45.9408C56.6017 42.8366 53.8321 42.3591 51.8267 42.3591C49.2954 42.3591 47.2417 43.1708 46.86 45.5108C46.7642 46.1316 46.7642 46.705 46.9075 47.4212C47.4809 50.382 52.495 51.1937 53.2117 53.0562ZM65.2459 54.9666C66.2488 54.9666 66.535 54.2979 66.6304 53.9158C66.6784 53.7729 66.6784 53.5337 66.6784 53.3908V42.8366H70.3075V53.1041C70.3075 53.3908 70.3075 53.9158 70.26 54.0591C70.0213 56.7337 67.92 57.5933 65.2934 57.5933C62.6671 57.5933 60.5659 56.7337 60.3267 54.0591C60.3267 53.9158 60.2792 53.3908 60.2792 53.1041V42.8366H63.9084V53.3908C63.9084 53.5816 63.9084 53.7725 63.9563 53.9158C63.9563 54.2979 64.2429 54.9666 65.2459 54.9666ZM95.045 54.8233C96.0959 54.8233 96.43 54.1546 96.5254 53.7725C96.5734 53.6296 96.5734 53.3904 96.5734 53.2475V51.1937H95.0929V49.0925H100.155V52.9133C100.155 53.1995 100.155 53.3904 100.107 53.8683C99.8684 56.4945 97.6238 57.402 95.0929 57.402C92.5617 57.402 90.3175 56.4945 90.0788 53.8683C90.0309 53.3904 90.0309 53.1995 90.0309 52.9129V46.8962C90.0309 46.6571 90.0788 46.1795 90.0788 45.9408C90.4129 43.2662 92.5621 42.4066 95.0929 42.4066C97.6238 42.4066 99.8209 43.2662 100.107 45.9408C100.155 46.3704 100.155 46.8958 100.155 46.8958V47.3733H96.5734V46.5616C96.5734 46.5616 96.5734 46.2271 96.5254 46.0362C96.4779 45.7021 96.1913 44.9858 95.0929 44.9858C94.0425 44.9858 93.7554 45.6541 93.6604 46.0362C93.6125 46.2271 93.6125 46.4662 93.6125 46.705V53.2475C93.6125 53.4383 93.6125 53.6291 93.6604 53.7725C93.6604 54.1546 94.0425 54.8233 95.045 54.8233Z" fill="black" fill-opacity="0.5"/>
</g>
<defs>
<clipPath id="clip0_23_15">
<rect width="100" height="100" fill="white" transform="translate(0.155029)"/>
</clipPath>
</defs>
</svg>
