<svg width="101" height="100" viewBox="0 0 101 100" fill="none" xmlns="http://www.w3.org/2000/svg">
<g id="&#229;&#189;&#162;&#231;&#138;&#182;_1_1_">
<g id="&#229;&#189;&#162;&#231;&#138;&#182;_1">
<g id="Group">
<path id="Vector" fill-rule="evenodd" clip-rule="evenodd" d="M27.1673 53.8463L27.1868 53.7982C27.1868 53.7982 27.1589 53.8145 27.1054 53.8434L27.1673 53.8463ZM19.7007 55.3979C19.7007 55.3979 18.8044 55.2471 18.8044 54.4318L18.8565 54.143L20.1142 53.8463L29.0829 51.733C29.0829 51.733 31.2661 46.9713 22.9354 47.0857C14.6058 47.2004 13.5151 52.4781 13.3997 53.5689C13.3913 53.6516 13.3856 53.7449 13.3849 53.8455L13.5151 54.1285C13.5085 55.3459 14.1429 57.416 19.7179 57.4691C19.7179 57.4691 24.6571 57.2992 26.0948 56.4953L27.1675 53.8463H27.1056C26.5093 54.1684 22.7478 56.1217 19.7007 55.3979ZM19.6212 50.8766C19.6212 50.8766 19.9849 48.6965 22.4433 48.6613C24.9026 48.626 24.3702 50.7266 24.3702 50.7266L18.9821 53.4387L19.6212 50.8766ZM9.37685 42.7256L5.24052 57.1254H11.0444C12.4228 52.3256 13.8019 47.5258 15.1804 42.7256H9.37685ZM74.5382 47.4555L70.1036 53.8465L69.87 54.1834L69.829 53.8465L69.0444 47.4555H63.6648L64.4396 53.8465L64.8372 57.1254H73.5446L75.781 53.8465L80.1392 47.4555H74.5382ZM55.4636 47.1367C46.9065 47.4555 46.3298 52.6857 46.3298 52.6857C46.3298 52.6857 46.1284 53.1797 46.1319 53.8463C46.1419 55.3234 47.1493 57.6469 53.5017 57.4275C58.5798 57.252 60.9853 55.4408 62.1216 53.8447C63.0532 52.5377 63.1327 51.3734 63.1327 51.3734C63.1327 51.3734 64.02 46.8178 55.4636 47.1367ZM57.1054 51.3734C57.1054 51.3734 57.0046 52.6877 56.3981 53.8463C55.9112 54.7771 55.0985 55.6057 53.7503 55.5754C53.7503 55.5754 52.2192 55.6949 52.2177 53.85C52.2177 53.5096 52.2698 53.1018 52.3927 52.615L52.969 50.9121C52.969 50.9121 53.4304 48.8828 55.4634 48.918C57.4962 48.9539 57.2474 50.5225 57.1054 51.3734ZM44.2972 47.7043C44.2972 47.7043 41.5897 46.9596 37.844 47.1715C34.0985 47.3842 31.4267 47.8811 31.4267 47.8811L29.6565 53.8463L28.6839 57.1252H34.6399L35.6263 53.8463L37.0983 48.9537C37.0983 48.9537 40.6228 48.4482 40.1614 50.2658L39.1188 53.8463L38.1638 57.1252H44.0128L44.9921 53.8463L46.0813 50.1951C46.0813 50.1951 46.7915 48.2004 44.2972 47.7043ZM87.3907 47.1367C78.8341 47.4555 78.2565 52.6857 78.2565 52.6857C78.2565 52.6857 78.0556 53.1797 78.0597 53.8463C78.0683 55.3234 79.0761 57.6469 85.4286 57.4275C90.5073 57.252 92.9122 55.4408 94.0489 53.8447C94.9804 52.5377 95.0597 51.3734 95.0597 51.3734C95.0597 51.3734 95.9474 46.8178 87.3907 47.1367ZM89.0327 51.3734C89.0327 51.3734 88.9323 52.6877 88.3251 53.8463C87.8382 54.7771 87.0257 55.6057 85.678 55.5754C85.678 55.5754 84.1466 55.6949 84.145 53.85C84.145 53.5096 84.1976 53.1018 84.3204 52.615L84.8966 50.9121C84.8966 50.9121 85.3579 48.8828 87.3907 48.918C89.4235 48.9539 89.1757 50.5225 89.0327 51.3734Z" fill="black" fill-opacity="0.5"/>
</g>
</g>
</g>
</svg>
