<svg width="65" height="64" viewBox="0 0 65 64" fill="none" xmlns="http://www.w3.org/2000/svg">
<g id="Frame">
<g id="Logos">
<g id="HP">
<path id="Vector" d="M46.667 24.6721L41.339 39.3441H37.499L42.859 24.6721H46.667Z" fill="black" fill-opacity="0.5"/>
<path id="Vector_2" d="M56.155 32C56.155 35.1517 55.5342 38.2726 54.3281 41.1844C53.122 44.0962 51.3542 46.742 49.1255 48.9706C46.8969 51.1992 44.2512 52.967 41.3394 54.1731C38.4276 55.3792 35.3067 56 32.155 56H31.435L36.363 42.496H43.115C43.7464 42.4983 44.3631 42.306 44.8813 41.9453C45.3995 41.5845 45.794 41.0729 46.011 40.48L51.451 25.6C51.6133 25.1552 51.6676 24.6782 51.6097 24.2082C51.5517 23.7383 51.383 23.2888 51.1175 22.8968C50.8519 22.5047 50.4971 22.1813 50.0823 21.9531C49.6674 21.7249 49.2043 21.5984 48.731 21.584H38.891L26.587 55.344C21.4378 54.0959 16.8464 51.1791 13.5286 47.0482C10.2108 42.9173 8.35322 37.8047 8.24545 32.5076C8.13768 27.2104 9.7858 22.0264 12.9328 17.7641C16.0798 13.5017 20.5488 10.4005 25.643 8.944L13.435 42.544H18.507L25.019 24.736H28.955L22.363 42.48H27.435L33.611 25.6C33.7639 25.1749 33.8181 24.7206 33.7694 24.2715C33.7207 23.8224 33.5704 23.3902 33.3298 23.0078C33.0893 22.6254 32.7648 22.3028 32.3811 22.0644C31.9974 21.8261 31.5644 21.6782 31.115 21.632H26.171L31.083 8C31.435 8 31.787 8 32.155 8C35.3067 8 38.4276 8.62078 41.3394 9.82689C44.2512 11.033 46.8969 12.8008 49.1255 15.0294C51.3542 17.258 53.122 19.9038 54.3281 22.8156C55.5342 25.7274 56.155 28.8483 56.155 32Z" fill="black" fill-opacity="0.5"/>
</g>
</g>
</g>
</svg>
