<svg width="65" height="64" viewBox="0 0 65 64" fill="none" xmlns="http://www.w3.org/2000/svg">
<g id="Frame" clip-path="url(#clip0_23_17)">
<path id="Vector" d="M48.0564 38.9333V24.864H51.315V36.0747H57.0217V38.928H48.0564V38.9333ZM21.9657 30.1653L29.9124 24.0533C30.6617 24.6613 31.4057 25.2747 32.155 25.8853L24.6164 31.592L26.2457 33.0187L33.7844 27.1093C34.5337 27.7173 35.2777 28.3307 36.027 28.944C33.5261 30.929 31.0132 32.8988 28.4884 34.8533L30.115 36.2827L37.6617 30.1627L37.659 24.8667H40.9204V36.0773H46.8297V38.9307H37.8644V33.632C35.211 35.6667 32.5657 37.7093 29.915 39.744L21.9657 33.632C21.5817 35.576 20.2244 37.2587 18.467 38.1493C17.707 38.5413 16.875 38.7893 16.027 38.8853C15.539 38.944 15.0484 38.9307 14.5577 38.9307H9.53103V24.8667H15.3284C16.8447 24.882 18.3121 25.405 19.4964 26.352C20.707 27.312 21.571 28.6773 21.9684 30.1653M12.5924 27.72V36.28L15.1337 36.2773C15.6679 36.26 16.192 36.1262 16.6691 35.8853C17.1463 35.6444 17.5651 35.3022 17.8964 34.8827C18.4562 34.1801 18.8001 33.3302 18.8862 32.436C18.9724 31.5418 18.7971 30.6418 18.3817 29.8453C18.1195 29.3383 17.7515 28.8935 17.3024 28.5411C16.8534 28.1886 16.3339 27.9368 15.779 27.8027C15.3364 27.696 14.8777 27.7227 14.427 27.7173H12.5924V27.72ZM31.675 0H32.5737C37.5998 0.0656316 42.5389 1.32029 46.987 3.66133C51.3278 5.94576 55.0907 9.18973 57.9897 13.1467C61.9056 18.4809 64.0608 24.9034 64.155 31.52V32.48C64.0548 40.4476 60.9765 48.0892 55.5257 53.9013C52.5878 57.0392 49.0464 59.5511 45.1138 61.2865C41.1811 63.0218 36.9385 63.9448 32.6404 64H31.6777C27.8951 63.9429 24.1527 63.2152 20.6244 61.8507C16.3261 60.1777 12.4388 57.5983 9.22703 54.288C5.7898 50.7538 3.21136 46.4764 1.69103 41.7867C0.722602 38.7781 0.204988 35.6428 0.155029 32.4827L0.155029 31.52C0.259465 25.4439 2.10289 19.5249 5.46703 14.464C8.60998 9.72206 12.9404 5.88628 18.027 3.33867C22.269 1.21782 26.9331 0.0768498 31.675 0ZM31.267 3.28C25.0125 3.45843 18.9891 5.68324 14.1204 9.61333C10.1383 12.819 7.08315 17.0285 5.2697 21.808C2.63351 28.8206 2.81799 36.5819 5.78436 43.4613C7.82935 48.1636 11.094 52.2339 15.2404 55.2507C19.0067 57.9972 23.3887 59.7789 28.003 60.44C31.8857 60.9973 35.883 60.7707 39.6724 59.7467C44.8592 58.3461 49.5483 55.5169 53.2057 51.5813C56.8658 47.6521 59.3477 42.7732 60.3684 37.5013C61.1646 33.365 61.0536 29.1052 60.043 25.016C58.8658 20.302 56.5119 15.9637 53.2016 12.4071C49.8912 8.85045 45.7326 6.19183 41.115 4.68C37.9387 3.64462 34.6061 3.17087 31.267 3.28Z" fill="black" fill-opacity="0.5"/>
</g>
<defs>
<clipPath id="clip0_23_17">
<rect width="64" height="64" fill="white" transform="translate(0.155029)"/>
</clipPath>
</defs>
</svg>
