<svg width="65" height="66" viewBox="0 0 65 66" fill="none" xmlns="http://www.w3.org/2000/svg">
<g id="Layer_1">
<g id="Group">
<path id="Vector" d="M47.825 35.4767C47.7543 28.3656 53.6239 24.955 53.8863 24.7827C50.5875 19.9594 45.4482 19.2976 43.6191 19.2223C39.2488 18.7784 35.0874 21.7965 32.8703 21.7965C30.6578 21.7965 27.2323 19.2873 23.6083 19.3512C18.841 19.422 14.4468 22.124 11.9935 26.3916C7.04244 34.9803 10.7269 47.7088 15.5513 54.6795C17.9099 58.0867 20.7226 61.9207 24.4128 61.7803C27.9694 61.64 29.3113 59.48 33.6108 59.48C37.9103 59.48 39.1176 61.7803 42.8797 61.7085C46.7045 61.6389 49.1292 58.2362 51.4684 54.8153C54.1761 50.857 55.2909 47.0242 55.3571 46.8302C55.2738 46.7914 47.9015 43.9673 47.825 35.4767Z" fill="black" fill-opacity="0.5"/>
<path id="Vector_2" d="M40.7561 14.609C42.713 12.2333 44.0389 8.93224 43.6784 5.646C40.8543 5.7601 37.4356 7.52304 35.408 9.89644C33.5914 12.0028 32.0031 15.3564 32.4287 18.5833C35.5791 18.8275 38.7924 16.9801 40.7561 14.609Z" fill="black" fill-opacity="0.5"/>
</g>
</g>
</svg>
