<svg width="91" height="90" viewBox="0 0 91 90" fill="none" xmlns="http://www.w3.org/2000/svg">
<g id="Capa_1" clip-path="url(#clip0_23_23)">
<path id="Vector" d="M87.0237 38.3324C87.0237 37.3086 87.845 36.4724 88.85 36.4724C89.3375 36.4724 89.7875 36.6749 90.14 37.0086C90.4925 37.3611 90.6762 37.8299 90.6762 38.3174C90.6762 38.8049 90.4925 39.2736 90.14 39.6261C89.7875 39.9786 89.3375 40.1774 88.85 40.1774C87.845 40.1736 87.0237 39.3524 87.0237 38.3324ZM86.8737 38.3324C86.8737 39.4386 87.7625 40.3424 88.8687 40.3424C89.405 40.3424 89.8925 40.1399 90.26 39.7574C90.6275 39.3711 90.845 38.8686 90.845 38.3324C90.845 37.7961 90.6425 37.2936 90.26 36.9074C89.8737 36.5211 89.39 36.3224 88.8687 36.3224C87.7625 36.3186 86.8737 37.2261 86.8737 38.3324ZM88.115 39.5211H88.4V38.5836H89.0375C89.1387 38.5836 89.2212 38.5836 89.2887 38.6174C89.3712 38.6661 89.4237 38.7674 89.4387 38.9024L89.4725 39.2699C89.4725 39.3524 89.4725 39.4049 89.4725 39.4386C89.4875 39.4724 89.4875 39.4874 89.5062 39.5061H89.8587V39.4574C89.81 39.4424 89.7912 39.3899 89.7762 39.3224C89.7612 39.2886 89.7612 39.2211 89.7612 39.1386L89.7462 38.8536C89.7462 38.7186 89.7125 38.6361 89.6787 38.5874C89.63 38.5386 89.5625 38.4861 89.4762 38.4524C89.5775 38.4036 89.645 38.3361 89.6937 38.2499C89.7425 38.1674 89.7612 38.0661 89.7612 37.9311C89.7612 37.6799 89.66 37.5111 89.4762 37.4099C89.375 37.3611 89.24 37.3424 89.09 37.3424H88.1337L88.115 39.5211ZM88.3812 38.3324V37.5749H89.0525C89.1537 37.5749 89.2362 37.5899 89.2887 37.6236C89.39 37.6724 89.4387 37.7924 89.4387 37.9424C89.4387 38.0924 89.405 38.1936 89.3225 38.2424C89.255 38.2911 89.1537 38.3249 89.0225 38.3249H88.3812V38.3324ZM8.98997 41.0961L0.844971 53.8986H6.40997L14.2512 41.6661L8.98997 41.0961ZM42.5187 40.8111V36.0674H26.6825C24.5225 36.2024 23.5812 37.2411 22.88 37.9761C22.1262 38.7636 21.7062 40.4211 21.7062 40.4211V36.1011H13.28C12.6425 36.1011 12.0387 36.3674 11.5887 37.0049C11.12 37.6236 9.19247 40.8074 9.19247 40.8074H42.5187V40.8111ZM85.5837 40.8111V36.0674H68.6412C66.4962 36.2024 65.54 37.2411 64.8387 37.9761C64.085 38.7636 63.665 40.4211 63.665 40.4211V40.8074H85.5837V40.8111ZM48.0837 36.0861H43.34V40.8111H48.0837V36.0861ZM63.6162 36.0861H58.8912V40.8111H63.6162V36.0861ZM63.6162 42.5211L58.9587 42.2361V47.7149C58.9587 47.7149 58.9437 49.2899 57.4175 49.2899H49.4412C49.4412 49.2899 48.0837 49.1736 48.0837 47.7299V41.4974L43.3925 41.1636V49.5599C44.1462 53.5799 47.7837 53.8986 47.7837 53.8986C47.7837 53.8986 48.1512 53.9136 48.2187 53.9324H59.0262C59.0262 53.9324 63.65 53.5649 63.65 49.1061L63.6162 42.5211ZM16.88 53.8986H39.0312C42.8862 53.1261 43.2875 49.6086 43.2875 49.6086C43.4712 48.5699 43.37 47.7149 43.37 47.7149C43.2537 47.0099 41.9112 43.8936 39.0312 43.6274C37.3062 43.4586 21.9387 42.2361 21.9387 42.2361C22.2387 43.7774 22.9287 44.5649 23.3975 44.9999C24.47 46.0236 26.1612 46.3236 26.1612 46.3236C26.5625 46.3574 38.0075 47.3136 38.0075 47.3136C38.375 47.3286 39.065 47.4299 39.0462 48.3374C39.0462 48.4536 38.945 49.2411 38.075 49.2411H21.5075V42.2024L16.8987 41.8686C16.88 41.8649 16.88 53.8986 16.88 53.8986ZM63.65 53.9324H80.6075C84.8637 53.6811 85.4675 49.6424 85.4675 49.6424C85.6175 48.5849 85.5012 47.7149 85.5012 47.7149C85.385 46.7586 84.0275 43.8786 81.1287 43.5936C79.4187 43.4249 63.9537 42.5211 63.9537 42.5211C64.4075 44.1149 65.0262 44.5986 65.495 45.0336C66.5675 46.0724 68.1575 46.3086 68.1575 46.3086C68.5587 46.3424 80.12 47.3136 80.12 47.3136C80.4875 47.3286 81.2412 47.3624 81.2412 48.2699C81.2412 48.5361 81.1062 48.8211 80.9412 48.9749C80.9412 48.9749 80.54 49.1924 80.1537 49.1924H63.6987L63.65 53.9324Z" fill="black" fill-opacity="0.5"/>
</g>
<defs>
<clipPath id="clip0_23_23">
<rect width="90" height="90" fill="white" transform="translate(0.844971)"/>
</clipPath>
</defs>
</svg>
